<svg width="24" height="24" viewBox="0 0 24 24" fill="none" xmlns="http://www.w3.org/2000/svg">
<path d="M12 2.5C12.729 2.5 13.0938 2.49971 13.3916 2.62679C13.6844 2.75179 13.9325 2.96257 14.1039 3.23085C14.2782 3.50366 14.3387 3.86317 14.4585 4.58225L14.5368 5.05745C14.7321 5.12881 14.9228 5.20964 15.11 5.2966L15.5048 5.01622C16.0979 4.59259 16.3947 4.38084 16.7108 4.31114C17.0217 4.24268 17.3463 4.26881 17.6417 4.38742C17.9421 4.50811 18.2003 4.76666 18.7158 5.28217C19.2309 5.79728 19.4888 6.05505 19.6095 6.35525C19.7281 6.65058 19.7552 6.97526 19.6868 7.28608C19.6171 7.60223 19.4054 7.89996 18.9817 8.49316L18.7003 8.88487C18.7879 9.07294 18.8687 9.26484 18.9405 9.4611L19.4178 9.5415C20.1368 9.66135 20.4963 9.72181 20.7692 9.8961C21.0374 10.0675 21.2482 10.3156 21.3732 10.6084C21.5003 10.9062 21.5 11.271 21.5 12C21.5 12.729 21.5003 13.0938 21.3732 13.3916C21.2482 13.6844 21.0374 13.9325 20.7692 14.1039C20.4963 14.2782 20.1368 14.3387 19.4178 14.4585L18.9415 14.5368C18.8697 14.7333 18.7879 14.9249 18.7003 15.1131L18.9817 15.5058C19.4054 16.099 19.6171 16.3967 19.6868 16.7129C19.7551 17.0236 19.7281 17.3485 19.6095 17.6437C19.4887 17.9439 19.2308 18.2017 18.7158 18.7168C18.2003 19.2323 17.9421 19.4909 17.6417 19.6115C17.3463 19.7301 17.0217 19.7563 16.7108 19.6878C16.3947 19.6181 16.0979 19.4064 15.5048 18.9827L15.111 18.7013C14.9235 18.7885 14.7325 18.87 14.5368 18.9415L14.4585 19.4178C14.3387 20.1368 14.2782 20.4963 14.1039 20.7692C13.9325 21.0374 13.6844 21.2482 13.3916 21.3732C13.0938 21.5003 12.729 21.5 12 21.5C11.271 21.5 10.9062 21.5003 10.6084 21.3732C10.3156 21.2482 10.0675 21.0374 9.8961 20.7692C9.72181 20.4963 9.66135 20.1368 9.5415 19.4178L9.46213 18.9415C9.26544 18.8696 9.07334 18.7881 8.88487 18.7003L8.4911 18.9827C7.89798 19.4064 7.60115 19.6181 7.28505 19.6878C6.9742 19.7563 6.64959 19.7301 6.35422 19.6115C6.05381 19.4909 5.79563 19.2323 5.28011 18.7168C4.76504 18.2017 4.50716 17.9439 4.38639 17.6437C4.2678 17.3485 4.24075 17.0236 4.30908 16.7129C4.37874 16.3967 4.59044 16.099 5.01416 15.5058L5.2966 15.1089C5.20979 14.9221 5.12871 14.7318 5.05745 14.5368L4.58225 14.4585C3.86317 14.3387 3.50366 14.2782 3.23085 14.1039C2.96257 13.9325 2.75179 13.6844 2.62679 13.3916C2.49971 13.0938 2.5 12.729 2.5 12C2.5 11.271 2.49971 10.9062 2.62679 10.6084C2.75179 10.3156 2.96257 10.0675 3.23085 9.8961C3.50366 9.72181 3.86317 9.66135 4.58225 9.5415L5.05849 9.4611C5.12975 9.26631 5.2098 9.07571 5.2966 8.889L5.01416 8.49316C4.59044 7.89996 4.37874 7.60223 4.30908 7.28608C4.24069 6.97526 4.26777 6.65058 4.38639 6.35525C4.50712 6.05505 4.765 5.79728 5.28011 5.28217C5.79563 4.76666 6.05381 4.50811 6.35422 4.38742C6.64962 4.26881 6.97418 4.24267 7.28505 4.31114C7.60113 4.38084 7.89801 4.59259 8.4911 5.01622L8.88694 5.29867C9.07484 5.21123 9.26605 5.12915 9.46213 5.05745L9.5415 4.58225C9.66135 3.86317 9.72181 3.50366 9.8961 3.23085C10.0675 2.96257 10.3156 2.75179 10.6084 2.62679C10.9062 2.49971 11.271 2.5 12 2.5ZM12 8.30556C9.95961 8.30556 8.30556 9.95961 8.30556 12C8.30556 14.0404 9.95961 15.6944 12 15.6944C14.0404 15.6944 15.6944 14.0404 15.6944 12C15.6944 9.95961 14.0404 8.30556 12 8.30556Z" fill="currentColor"/>
</svg>
